<svg xmlns="http://www.w3.org/2000/svg" width="120" height="120"><path fill="#785946" d="M0 0h120v120H0z"/><path fill="#F2E9D7" d="M0 0h120v120H0zm51 5-1 2-3 1c-1.05 1.48-1.05 1.48-2.13 2.99-2.17 2.73-3.63 3.48-7.08 3.89-1.58.11-3.15.19-4.73.24-7.31.33-11.68 1.5-17.06 6.88-.5 3.75-.84 7.48-1.12 11.26-.51 5.52-1.43 9.38-5.57 13.36C7.65 48.04 7.65 48.04 8 51c-1.49.49-1.49.49-3 1-2.76 3.63-2.14 7.65-2 12h2c.21.66.41 1.32.62 2 1.57 3.42 3.59 6.03 5.94 8.94 3.24 4.64 3.72 8.93 4.19 14.5.48 4.47.9 8.12 4.19 11.44 5.18 3.59 10.1 3.38 16.17 3.46 3.59.15 5.49.32 8.27 2.7.53.65 1.07 1.29 1.62 1.96h2v2c5.62 5.01 8.53 6.38 16 6 2.36-.42 2.36-.42 4-1v-2h2v-2h2c1.22-1.51 2.44-3.02 3.59-4.59 3.12-3.11 7.62-2.58 11.79-2.79 6.42-.47 10.5-1.27 14.93-6.18 3.23-4.67 2.93-8.99 2.94-14.5.08-2.12.08-2.12.75-5.94 2.55-2.26 2.55-2.26 5-4v-4l4-2v-2h2c1.75-3.5 1.57-7.19 1-11-1.38-2.83-2.87-4.61-5-7h-2v-2c-1.31-1.35-2.65-2.69-4-4-1.13-2.25-1.18-3.67-1.29-6.18-.05-.82-.11-1.65-.17-2.51-.11-1.73-.2-3.47-.26-5.21-.33-4.8-.33-4.8-2.79-8.79-5.48-4.06-10.01-4.32-16.74-4.37-5.34-.18-8.67-.94-12.44-4.94-.84-1.08-.84-1.08-1.7-2.19C69.78 5.75 68.69 5.37 66 5V3c-7.78-.46-7.78-.46-15 2"/><path fill="#775846" d="M54 23h10v2c-1.13.12-2.27.25-3.44.38-1.17.2-2.35.41-3.56.62l-1 2h9l1-4c.5 1.48.5 1.48 1 3l23 1v26h4c.02 5.39.04 10.79.05 16.18l.03 5.51c.01 2.63.01 5.27.02 7.9 0 .83.01 1.65.01 2.5 0 1.97-.05 3.94-.11 5.91-1 1-1 1-3.66 1.12-1.79 0-1.79 0-3.6-.01h-1.98c-2.17 0-4.34 0-6.51-.01-1.5 0-3.01-.01-4.51-.01-3.95 0-7.91-.01-11.87-.02-4.74-.01-9.49-.02-14.23-.02-7.21-.01-14.43-.03-21.64-.05V55l4-2V27h24z"/><path fill="#785844" d="M34 30h54c0 24 0 24-1 26H34z"/><path fill="#FAEEE6" d="M56 23h8v2c-1.13.12-2.27.25-3.44.38-1.17.2-2.35.41-3.56.62l-1 2h9l1-4c.5 1.48.5 1.48 1 3l23 1v26h4v38c-1.48-.99-1.48-.99-3-2-.19-3.12-.19-3.12 0-6h-4V64l-17-1v-1h17v-4H35v4h17v2H35c.09 3.06.19 6.12.31 9.19.03.86.05 1.73.07 2.62.21 4.96.7 8.03 3.62 12.19v3h43v1H27v-7l2 1v4h7c-.74-1.18-.74-1.18-1.5-2.38C33 85 33 85 33 83h-5l-1-20h2l1 17h2l1-24h54V30l-54-1v23h-1V28h23z"/><path fill="#765949" d="M68 64h18c.08 3.1.14 6.21.19 9.31.02.88.05 1.76.07 2.67l.03 2.57c.02.78.03 1.56.05 2.37-.43 2.63-1.37 3.35-3.34 5.08l-2 3c-1.8.36-1.8.36-3.99.34h-2.49c-.88-.02-1.77-.03-2.68-.05-.91 0-1.82-.01-2.75-.01-2.91-.02-5.81-.05-8.71-.09-1.97-.02-3.94-.03-5.9-.04-4.83-.04-9.65-.09-14.48-.15v-1h33c-.5-.99-.5-.99-1-2-1.25.16-2.49.33-3.78.5-5.6.62-11.15.61-16.78.56-1.01 0-2.02-.01-3.06-.01-2.46-.01-4.92-.03-7.38-.05l1-3h-2v-2l9-1c.29-.8.58-1.61.88-2.44C51 76 51 76 53 75v-2l14-1z"/><path fill="#CDBCAE" d="m54 23 2 1-1 4H32c1.02 1.24 1.02 1.24 3.17 1.12.96 0 1.91 0 2.9-.01h3.28c1.17 0 2.35-.01 3.56-.01 1.2 0 2.39-.01 3.63-.01q5.76 0 11.52-.03c2.6 0 5.2-.01 7.79-.01 6.39-.01 12.77-.03 19.15-.05v1H34v26c-.13 4.55-.27 9.08-.5 13.62-.05 1.03-.1 2.06-.14 3.12L33 80h-4V63c-1.2.98-1.2.98-1.11 2.86 0 .79.01 1.58.01 2.39.01.86.01 1.71.01 2.59l.03 2.72c0 .9.01 1.81.01 2.73.01 2.24.03 4.47.05 6.71 1.18-.06 1.18-.06 2.39-.11C33 83 33 83 34.81 84.81 36 87 36 87 36 90h-7l-1-4-1 6c5.94-.5 5.94-.5 12-1v-1h43l1-6 3-1V64h1v20h4c2.05 3.46 2 4.59 2 9H26V55l4-2V27h24z"/><path fill="#795A46" d="m61.188 2.938 2.73.03 2.08.03v2c1.21.34 1.21.34 2.44.69.85.43 1.69.87 2.56 1.31.81 2.63.81 2.63 1 5l-4-2v-2h-4c.42.8.42.8.84 1.61.36.71.73 1.41 1.1 2.14.36.7.72 1.39 1.09 2.11.93 2.04 1.5 3.95 1.97 6.14h2l1-3v8h-4v2h22v1h-34l1-3h7v-2h-10v4h-2v-2h-4c-1.12-5.62-1.12-5.62 0-9-2.97-.49-2.97-.49-6-1 .76-1.15 1.54-2.29 2.31-3.44.65-.95.65-.95 1.31-1.93 1.38-1.63 1.38-1.63 4.38-2.63.5-.49.99-.99 1.5-1.5 2.84-2.84 5.91-2.61 9.69-2.56"/><path fill="#DDD0C2" d="M35 58h52v4l-7 1v1H68l.06 3.94c.02 1.35.01 2.71-.06 4.06-1 1-1 1-4.16 1.1l-3.9-.04c-1.29-.01-2.58-.02-3.91-.02-1-.02-2-.03-3.03-.04l-1-11H35z"/><path fill="#F6ECE0" d="M33 56h53v2H35v4h17v2H35c.09 3.06.19 6.12.31 9.19.03.86.05 1.73.07 2.62.21 4.96.7 8.03 3.62 12.19v3h43v1H27v-7l2 1v4h7c-.49-.78-.99-1.57-1.5-2.38C33 85 33 85 33 83h-5l-1-20h2l1 17h2z"/><path fill="#6F5847" d="M17 91c2.48.99 2.48.99 5 2v2h3v-2c8.78.08 17.56.18 26.34.29 4.08.05 8.15.09 12.23.13 3.94.04 7.87.09 11.81.14 1.5.02 3 .03 4.5.04 2.1.02 4.21.05 6.31.08 1.2.01 2.39.03 3.63.04 3.12.27 5.36.95 8.18 2.28l-2 4h2v2h-4v-2l-6 2 1-4c-7.31-1.95-14.02-2.24-21.56-2.12l-3.35.02c-2.7.03-5.39.06-8.09.1v1l-26 1v3h-3l-3 1c-5-3-5-3-7-5q-.06-3 0-6"/><path fill="#725842" d="M48 16v9h4v2H29v-2h3l-1-4c-.45.5-.91.99-1.38 1.5C28 24 28 24 26 24v-2l-5 2v-2c1.33-1 2.67-2 4-3v-2c8.03-1.76 14.88-2.08 23-1"/><path fill="#82695A" d="M94 55h1v35h2v-2l6 1 1-8h1c.69 12.89.69 12.89-1.81 16.69C101 100 101 100 98 102v-2h-2v-2c-1.98-.5-1.98-.5-4-1l2-1c-1.83-1.83-4.72-1.17-7.17-1.21l-1.95-.03c-2.14-.03-4.28-.05-6.42-.08l-4.43-.06-11.69-.15c-3.98-.05-7.95-.11-11.93-.16C42.61 94.2 34.8 94.1 27 94v-1l66-1z"/><path fill="#D0BFB2" d="M86 64h1v20h4c2.05 3.46 2 4.59 2 9H27v-1l12-1v-1h43l1-6 3-1z"/><path fill="#89796C" d="M34 30h54c0 24 0 24-1 26H34v-1c.88-.03 1.76-.05 2.67-.08C61.63 56.28 61.63 56.28 85 52c1.62-6.48 1-13.33 1-20l-52-1z"/><path fill="#F2E8D8" d="M27 63h2l1 17h4V64h1c.04 1.31.07 2.63.11 3.98.07 1.74.14 3.47.2 5.21.03.86.05 1.73.07 2.62.21 4.96.7 8.03 3.62 12.19v3h43v1H27v-7l2 1v4h7c-.49-.78-.99-1.57-1.5-2.38C33 85 33 85 33 83h-5z"/><path fill="#FEF3E5" d="M56 23h8v2c-1.13.12-2.27.25-3.44.38-1.76.3-1.76.3-3.56.62l-1 2h9l1-4c.5 1.48.5 1.48 1 3l23 1-1 25h-1l-1-23-54-1v23h-1V28h23z"/><path fill="#735E51" d="m34 31 3 1 .15 3.39c.07 1.48.15 2.95.23 4.42l.09 2.24c.2 3.77.39 5.75 2.53 8.95v3h26v1H34z"/><path fill="#8A745E" d="M38 15v1h-8l-1 2-4-1v2l3 1-8 1c-2.57 5.25-1.99 9.91-1.68 15.62-.38 4.05-1.62 5.44-4.32 8.38-.33.91-.66 1.81-1 2.75-.33.74-.66 1.48-1 2.25-2.13.81-2.13.81-4 1 .35-3.11.53-4.59 2.94-6.69 4.2-4.71 4.03-11.55 4.31-17.62.36-3.9.64-4.56 3.37-7.69 6.43-3.81 12.11-4.3 19.38-4"/><path fill="#7C6B5A" d="m39 82 1 2h2v2c3.29.03 6.58.05 9.88.06l2.78.03c6.17.02 12.21-.35 18.34-1.09v3h9v2H39l-2-6h2z"/><path fill="#B9A69A" d="M26 55h1c.82 6.4 1.13 12.61 1.06 19.06 0 .87-.01 1.73-.01 2.63-.01 2.1-.03 4.21-.05 6.31.79-.04 1.58-.07 2.39-.11C33 83 33 83 34.81 84.81 36 87 36 87 36 90h-7l-1-4-1 7h-1z"/><path fill="#7E6756" d="m90 28 3 1c.9 2.71 1.12 4.24 1.1 7.01-.01.76-.01 1.52-.01 2.3l-.03 2.38c0 .79-.01 1.59-.01 2.41-.01 1.97-.03 3.93-.05 5.9h2v3l-4-1v2l2 1h-4z"/><path fill="#827166" d="M56 59h9v11h-9z"/><path fill="#9F9088" d="m89 56 3 1v24h-4q-.045-5.97-.06-11.94l-.03-3.44c0-1.08 0-2.16-.01-3.27 0-1-.01-2-.01-3.03C88 57 88 57 89 56"/><path fill="#776656" d="M35 64h18v9h-1v-7h-2c-.99 1.48-.99 1.48-2 3v-3l-10 1 2 5h-2v9h-2l-1 2z"/><path fill="#6D584A" d="M48 31c5.39-.02 10.79-.04 16.18-.05l5.51-.03c2.63-.01 5.27-.01 7.9-.02.83 0 1.65-.01 2.5-.01 1.97 0 3.94.05 5.91.11 1.78 1.78 1.13 4.16 1.14 6.53-.01.73-.01 1.47-.02 2.22l.02 2.17c-.01 3.82-.22 7.37-1.14 11.08h-1l-1-5h-1V38h2v-4h-2v-2H48z"/><path fill="#947D6C" d="m66 16 3 1v3h2l1-3v8h-4v2h22v1H56l1-3h7v-2l4-1c-.35-1.98-.35-1.98-1-4l-2-1z"/><path fill="#E4D4C9" d="M89 32h1v22h4v38l-3-2c-.19-3.12-.19-3.12 0-6l-2-1h4V55l-6 1 1-3c.15-1.63.25-3.26.32-4.89a1595 1595 0 0 0 .24-5.8c.05-.99.09-1.97.13-2.99.11-2.44.21-4.88.31-7.32"/><path fill="#EEDCCA" d="M114 47c4.88.88 4.88.88 6 2 .09 1.42.11 2.84.1 4.25-.01.86-.01 1.71-.01 2.59l-.03 2.72c0 .9-.01 1.81-.01 2.73-.01 2.24-.03 4.47-.05 6.71h-2l-1 2c-1.98.73-3.98 1.4-6 2 0-2 0-2 1.88-4.12C115 66 115 66 117 66c.08-1.75.14-3.5.19-5.25.03-.97.07-1.95.1-2.95-.34-3.23-1.33-4.3-3.29-6.8z"/><path fill="#8B735D" d="m61.188 2.938 2.73.03 2.08.03v1c-1.16.1-1.16.1-2.34.19-7.8.92-12.49 2.81-17.66 8.81l-1 2h5l-1-3 3-1-1 5h6c-.82.62-1.65 1.24-2.5 1.88-.82.7-1.65 1.4-2.5 2.12v2c-2.47-.99-2.47-.99-5-2l1-4c-2.97-.49-2.97-.49-6-1 .76-1.15 1.54-2.29 2.31-3.44.65-.95.65-.95 1.31-1.93 1.38-1.63 1.38-1.63 4.38-2.63.5-.49.99-.99 1.5-1.5 2.84-2.84 5.91-2.61 9.69-2.56"/><path fill="#8F867C" d="M68 58h19v4H68z"/><path fill="#8A8175" d="M35 58h18v4H35z"/><path fill="#795B49" d="M28 97h17v1c-4.32 1.1-8.62 2.18-13 3v2h5v1c-11.71.55-11.71.55-16-3h5l1-2h3z"/><path fill="#887A6F" d="M29 57h3v24l-3-1z"/><path fill="#71563F" d="m48 98 2 2c-.8.45-1.61.91-2.44 1.38-2.65 1.37-2.65 1.37-3.56 3.62l-12-2v-2c5.32-2.71 10-3.94 16-3"/><path fill="#F9F1DD" d="M26 10c2.21.07 4.42.08 6.62.06l3.61-.02L39 10l-4 2c2.97.5 2.97.5 6 1v1c-5.13.1-9.95.04-15-1v2h-5v-2l-5-1c3.3-2.2 6.23-3.88 10-2"/><path fill="#EADDD4" d="M27 63h2l1 17h4V64h1v20l-7-1z"/><path fill="#E8D3C2" d="M106 77h1c.29 1.2.58 2.39.88 3.62.87 3.53 1.92 6.95 3.12 10.38h-2v-3h-2l1 6h-3c-.03-2.65-.05-5.29-.06-7.94l-.03-2.28c-.01-1.93.04-3.86.09-5.78z"/><path fill="#D7C3AF" d="m103 96 1 3c-6.39 5.42-9.52 6.17-18.03 6.52-.98.16-1.96.32-2.97.48-.99 1.48-.99 1.48-2 3v-2l-7 2c2.46-3.81 2.46-3.81 4.71-4.61 2.89-.49 5.74-.62 8.67-.77 4.85-.35 8.55-.73 12.62-3.62 1.85-2.05 1.85-2.05 3-4"/><path fill="#856C5F" d="M113 50c2.75 2.13 4.78 3.74 5.4 7.27.04 2.32.03 4.44-.4 6.73l-2 2c-1.35-2.71-1.07-5.01-1-8h-2c-.8-3.29-1.1-4.71 0-8"/><path fill="#7E624E" d="M64 8c4 0 4 0 6.25 2 .58.66 1.16 1.32 1.75 2l-1-4 7 6-2 2c-5.55-.13-8.18-2.28-12-6z"/><path fill="#6F5540" d="m56 5 1 3h-2l-1 5h-4v2h-5c1.37-3.15 2.88-5.05 5.5-7.25.61-.52 1.22-1.04 1.84-1.58C54 5 54 5 56 5"/><path fill="#71553F" d="m98 96-2 4h2v2h-4v-2l-6 2 1-4c-2.97-.5-2.97-.5-6-1v-1c5.38-.85 9.65-1 15 0"/><path fill="#8A735F" d="M17 33h1c.49 6.31.49 6.31-1.88 9.62L14 45c-.33.91-.66 1.81-1 2.75-.33.74-.66 1.48-1 2.25-2.12.81-2.12.81-4 1 .48-4.36 1.79-6.09 5-9l1-2h2l-.06-2.94C16 34 16 34 17 33"/><path fill="#7D5C4E" d="m82 32 1 2h2v4h-2l2 2c.2 2.82.2 2.82.12 6.12-.01 1.1-.03 2.2-.05 3.33-.03 1.26-.03 1.26-.07 2.55l-2 1-1-3h-2v-2h2z"/><path fill="#6E564D" d="M58 60h6v9h-8l1-4 5 1v-4h-4z"/><path fill="#EDE0C9" d="m73 109 1 4c-.99.5-.99.5-2 1-.66 2.53-.66 2.53-1 5l-6 1 1-3-2-1h4v-2h2v-2h2z"/><path fill="#76614E" d="m67 72 1 2h-2v2c-1.79.03-3.58.05-5.38.06-.99.01-1.99.03-3.02.04C55 76 55 76 53 75v-2z"/><path fill="#E3D5C3" d="M2 56h1v8h2l1 4H4l-1-1-1 5H0v-9h1z"/><path fill="#6E594F" d="M81 80h4c-.63 2.93-1.59 5.36-3 8h-5l-1-3h4z"/><path fill="#80634D" d="M40 102h8v2l3 1v2l-4 1h3v3h-2v-2h-2c-1.38-1.63-2.72-3.29-4-5l3-1h-5z"/><path fill="#7A6452" d="m48 21 19 1v1H54v4h-2v-2h-4z"/><path fill="#B8A79C" d="M64 23h3c-.88 3.88-.88 3.88-2 5-1.52.07-3.04.08-4.56.06-.83-.01-1.66-.02-2.51-.02-.63-.02-1.27-.03-1.93-.04l1-3h7z"/><path fill="#E5D5C2" d="M26 12c2.71.26 5.37.57 8.06.94A1089.333 1089.333 0 0 1 42 14v1l-20 2v-2l3-2z"/><path fill="#6D5341" d="M65 18h2l2 5-16-1 3-1v-2c3.63-.2 5.87.14 9 2z"/><path fill="#E4CFB9" d="M76 12h6v2l14-1-1 3c-2.79-.09-5.58-.19-8.38-.31-.79-.03-1.58-.05-2.4-.07-2.08-.1-4.15-.35-6.22-.62z"/><path fill="#746B5C" d="M30 84c2.87.57 3.86.86 6 3v3h-6z"/><path fill="#9F8873" d="M19 19c0 7.22-1.07 14.06-3 21h-1c.09-2.94.19-5.87.31-8.81.03-.84.05-1.67.07-2.53.05-1.2.05-1.2.11-2.43l.08-2.24C16.1 21.53 17.1 20.6 19 19"/><path fill="#F5E8DC" d="M56 23h8v2c-1.13.12-2.27.25-3.44.38-1.76.3-1.76.3-3.56.62l-1 2h7v1h-9z"/><path fill="#FAECD8" d="m32 105 3.81-.06c.71-.01 1.42-.03 2.15-.04C40 105 40 105 43 106v2c-4.45.5-4.45.5-9 1l1-2z"/><path fill="#826E5F" d="m26 99 4 2v2h7v1c-11.71.55-11.71.55-16-3h5z"/><path fill="#71615E" d="M88 84h3v6h-6c1.88-4.88 1.88-4.88 3-6"/><path fill="#705240" d="M88 25h4v2h2v-2h2l1 7h-3l-1-3-3-1v-2z"/><path fill="#907662" d="M83 15c6.52-.35 11.18-.04 17 3-3.91 1.3-6.2.48-10.19-.44-1.27-.28-2.54-.57-3.85-.87-.98-.23-1.95-.45-2.96-.69z"/><path fill="#6D5A4A" d="m57 112 7 1v3c-5.75.12-5.75.12-8-1z"/><path fill="#E0CEB8" d="M14 78c2.6 3.9 2.15 7.47 2 12l-2-2-2 4q-.06-3 0-6l1-1c.37-2.33.7-4.66 1-7"/><path fill="#E8D1BB" d="m43 106 3 1v2h2v2l2 1c-5.75.12-5.75.12-8-1z"/><path fill="#9F8C7C" d="M51 112h6l-1 3 8 1v1c-8.76.45-8.76.45-13-3z"/><path fill="#DBC9C1" d="M94 82v10l-3-2c-.19-3.12-.19-3.12 0-6l-2-1c3.88-1 3.88-1 5-1"/><path fill="#E3D3BF" d="m54 0 10 1v2L54 4z"/><path fill="#695640" d="m49 65 3 1 1 9h-2c-2.09-3.4-2.18-6.05-2-10"/><path fill="#957E75" d="m56 59 2 4 4-1v4l-5-1-1 3z"/><path fill="#856C5A" d="M14 45c-.75 2.44-.75 2.44-2 5-2.13.81-2.13.81-4 1 .38-2.44.38-2.44 1-5 2-1 2-1 5-1"/><path fill="#ECDDC9" d="m72 2-1 2c.4 2.1.4 2.1 1 4l-6-3V2c3-1 3-1 6 0"/><path fill="#69543F" d="M40 82h7v2h-2v3l-4-1 1-2h-2z"/><path fill="#EEE4CE" d="M8 79h5l-1 6H8z"/><path fill="#856853" d="m76 101 4 1v1h8v1c-1.62.19-3.25.38-4.88.56-.9.11-1.8.21-2.74.32C78 105 78 105 76 104z"/><path fill="#7C6351" d="m103 27 2 1v10h-1l-1-6h-2c.88-3.88.88-3.88 2-5"/><path fill="#6A5345" d="M17 91c2.48.99 2.48.99 5 2v2l5 1c-3.33 1.11-5.62.84-9 0z"/><path fill="#836555" d="M104 81h1v13l-1-2h-3l1-3h1z"/><path fill="#F7E4D6" d="M27 85c.99.5.99.5 2 1 .62 2.06.62 2.06 1 4l5 1v1h-8z"/><path fill="#7D654E" d="M91 100h3v2l2 1-7 1z"/><path fill="#F2E0CC" d="M35 11c3.38-.12 3.38-.12 7 0l2 2c-3.69 1.23-6.21.64-10 0z"/><path fill="#796155" d="M80 83c2 3 2 3 2 5h-5l-1-3h4z"/><path fill="#9A7F6A" d="m10 72 4 2 1-2c.62 1.88.62 1.88 1 4l-2 2a89 89 0 0 1-4-4z"/><path fill="#DDCAC4" d="M85 84c1.12 3.75 1.12 3.75 0 6h-3v-4z"/><path fill="#72503C" d="M7 52c2.35.6 4.69 1.27 7 2l1 2H8z"/><path fill="#6C503C" d="M63 7c5.5-.37 5.5-.37 7.88 1.38C72 10 72 10 72 12l-4-2V8h-5z"/></svg>